<svg xmlns="http://www.w3.org/2000/svg" width="21.747" height="21.779" viewBox="0 0 21.747 21.779">
  <g id="Layer_2" transform="translate(-87.85 -87.612)">
    <g id="Group_8643" data-name="Group 8643" transform="translate(87.9 87.667)">
      <path id="Path_6990" data-name="Path 6990" d="M98.733,109.341a10.831,10.831,0,0,0,10.813-10.285A.484.484,0,0,0,108.58,99a9.865,9.865,0,1,1-4.573-8.836L102.919,91.5l3.124-.316-.316-3.124-1.1,1.352a10.833,10.833,0,1,0-5.893,19.926Z" transform="translate(-87.9 -87.667)" fill="#5d769f" stroke="#5d769f" stroke-width="0.1"/>
      <path id="Path_6991" data-name="Path 6991" d="M186.64,172.094c0-.006,0-.013-.006-.013s-.006-.019-.006-.032-.006-.019-.006-.026-.006-.013-.006-.019a.347.347,0,0,0-.045-.084h0l-2.048-3.008a.475.475,0,0,0-.4-.213h-5.191a.475.475,0,0,0-.4.213l-2.048,3h0a.529.529,0,0,0-.045.084c0,.006-.006.013-.006.019a.039.039,0,0,0-.006.026c0,.013-.006.019-.006.032s0,.013-.006.013a.5.5,0,0,0-.013.1h0v7.271a.487.487,0,0,0,.483.483h9.28a.487.487,0,0,0,.483-.483v-7.265h0A.427.427,0,0,0,186.64,172.094Zm-7.451-2.428h4.676l1.385,2.035H177.8Zm6.492,9.313h-8.308v-6.305h8.314v6.305Z" transform="translate(-170.7 -163.481)" fill="#5d769f" stroke="#5d769f" stroke-width="0.1"/>
    </g>
  </g>
</svg>
