<svg xmlns="http://www.w3.org/2000/svg" width="13.47" height="14" viewBox="0 0 13.47 14">
  <g id="cart_2_" data-name="cart (2)" transform="translate(-9.698 0)">
    <g id="Group_2085" data-name="Group 2085" transform="translate(9.698 0)">
      <g id="Group_2084" data-name="Group 2084" transform="translate(0 0)">
        <path id="Path_2977" data-name="Path 2977" d="M131.432,382.711a1.488,1.488,0,1,0,1.488,1.488A1.49,1.49,0,0,0,131.432,382.711Zm0,2.083a.6.6,0,1,1,.6-.6A.6.6,0,0,1,131.432,384.794Z" transform="translate(-126.471 -371.687)" fill="#333"/>
        <path id="Path_2978" data-name="Path 2978" d="M322.783,382.711a1.488,1.488,0,1,0,1.488,1.488A1.49,1.49,0,0,0,322.783,382.711Zm0,2.083a.6.6,0,1,1,.6-.6A.6.6,0,0,1,322.783,384.794Z" transform="translate(-311.992 -371.687)" fill="#333"/>
        <path id="Path_2979" data-name="Path 2979" d="M23.053,3.7a.518.518,0,0,0-.415-.214H13.352L12.87.874a.55.55,0,0,0-.425-.448L10.324.009a.534.534,0,0,0-.617.456.566.566,0,0,0,.426.661l1.767.347L13.456,9.9a.541.541,0,0,0,.52.458H21.4a.539.539,0,0,0,.517-.44l1.237-5.736A.6.6,0,0,0,23.053,3.7ZM20.979,9.219H14.412l-.85-4.6h8.409Z" transform="translate(-9.698 0)" fill="#333"/>
      </g>
    </g>
  </g>
</svg>
