<svg xmlns="http://www.w3.org/2000/svg" width="12" height="14" viewBox="0 0 12 14">
  <g id="user_16_" data-name="user (16)" transform="translate(0 -0.008)">
    <path id="Path_2975" data-name="Path 2975" d="M88.665,6.674A3.333,3.333,0,1,1,92,3.341,3.337,3.337,0,0,1,88.665,6.674Zm0-5.667A2.333,2.333,0,1,0,91,3.341,2.336,2.336,0,0,0,88.665,1.008Zm0,0" transform="translate(-82.665)" fill="#fff"/>
    <path id="Path_2976" data-name="Path 2976" d="M11.5,262.008H.5a.5.5,0,0,1-.5-.5v-2.333a3.17,3.17,0,0,1,3.167-3.167H8.833A3.17,3.17,0,0,1,12,259.174v2.333A.5.5,0,0,1,11.5,262.008Zm-10.5-1H11v-1.833a2.169,2.169,0,0,0-2.167-2.167H3.167A2.169,2.169,0,0,0,1,259.174Zm0,0" transform="translate(0 -248)" fill="#fff"/>
  </g>
</svg>
