<svg xmlns="http://www.w3.org/2000/svg" width="13.322" height="18.129" viewBox="0 0 13.322 18.129">
  <g id="iconfinder_lock_1814107" transform="translate(0 0)">
    <g id="Icon-Lock" transform="translate(0 0)">
      <path id="Fill-66" d="M-255.476-414.166h-1.135v-2.422a4.3,4.3,0,0,0-4.277-4.277,4.3,4.3,0,0,0-4.277,4.277v2.422H-266.3v-2.422A5.411,5.411,0,0,1-260.888-422a5.411,5.411,0,0,1,5.412,5.412v2.422" transform="translate(267.549 422)" fill="#4e4e4e"/>
      <path id="Fill-67" d="M-258.094-392h-9.689a1.842,1.842,0,0,1-1.817-1.817v-7.267a1.842,1.842,0,0,1,1.817-1.817h9.689a1.842,1.842,0,0,1,1.817,1.817v7.267A1.817,1.817,0,0,1-258.094-392Zm-9.689-9.689a.6.6,0,0,0-.606.606v7.267a.6.6,0,0,0,.606.606h9.689a.6.6,0,0,0,.606-.606v-7.267a.6.6,0,0,0-.606-.606Z" transform="translate(269.6 410.129)" fill="#4e4e4e"/>
      <path id="Fill-68" d="M-252.778-395.289a1.2,1.2,0,0,1-1.211,1.211,1.2,1.2,0,0,1-1.211-1.211,1.2,1.2,0,0,1,1.211-1.211,1.22,1.22,0,0,1,1.211,1.211" transform="translate(260.65 406.151)" fill="#4e4e4e"/>
      <path id="Fill-69" d="M-253.189-393.3h-.606l-.606,3.633h1.817l-.606-3.633" transform="translate(260.153 404.162)" fill="#4e4e4e"/>
    </g>
  </g>
</svg>
