<svg xmlns="http://www.w3.org/2000/svg" width="31.5" height="31.5" viewBox="0 0 31.5 31.5">
  <g id="Layer_2" data-name="Layer 2" transform="translate(-1.75 -1.75)">
    <path id="Path_6951" data-name="Path 6951" d="M14.107,25.714a1.107,1.107,0,0,0,1.107-1.107V9.107a1.107,1.107,0,1,0-2.214,0v15.5A1.107,1.107,0,0,0,14.107,25.714Z" transform="translate(1.179 0.643)" fill="#5d83be"/>
    <path id="Path_6952" data-name="Path 6952" d="M10.107,22.071a1.107,1.107,0,0,0,1.107-1.107V12.107a1.107,1.107,0,0,0-2.214,0v8.857A1.107,1.107,0,0,0,10.107,22.071Z" transform="translate(0.75 0.964)" fill="#5d83be"/>
    <path id="Path_6953" data-name="Path 6953" d="M18.107,20.857a1.107,1.107,0,0,0,1.107-1.107V13.107a1.107,1.107,0,1,0-2.214,0V19.75A1.107,1.107,0,0,0,18.107,20.857Z" transform="translate(1.607 1.071)" fill="#5d83be"/>
    <path id="Path_6954" data-name="Path 6954" d="M22.107,22.071a1.107,1.107,0,0,0,1.107-1.107V12.107a1.107,1.107,0,1,0-2.214,0v8.857A1.107,1.107,0,0,0,22.107,22.071Z" transform="translate(2.036 0.964)" fill="#5d83be"/>
    <path id="Path_6955" data-name="Path 6955" d="M17.5,33A15.5,15.5,0,1,0,2,17.5,15.5,15.5,0,0,0,17.5,33Zm0-28.786A13.286,13.286,0,1,1,4.214,17.5,13.286,13.286,0,0,1,17.5,4.214Z" transform="translate(0)" fill="#5d83be" stroke="#fff" stroke-width="0.5"/>
  </g>
</svg>
