<svg xmlns="http://www.w3.org/2000/svg" width="21.951" height="19.532" viewBox="0 0 21.951 19.532">
  <path id="heart" d="M10.975,19.532a1.287,1.287,0,0,1-.849-.319c-.887-.776-1.742-1.5-2.5-2.147l0,0a46.426,46.426,0,0,1-5.45-5.116A8.172,8.172,0,0,1,0,6.6,6.863,6.863,0,0,1,1.741,1.912,5.9,5.9,0,0,1,6.132,0,5.521,5.521,0,0,1,9.581,1.191a7.057,7.057,0,0,1,1.394,1.456A7.058,7.058,0,0,1,12.37,1.191,5.521,5.521,0,0,1,15.819,0,5.9,5.9,0,0,1,20.21,1.912,6.862,6.862,0,0,1,21.951,6.6a8.171,8.171,0,0,1-2.177,5.349,46.415,46.415,0,0,1-5.449,5.116c-.756.644-1.612,1.374-2.5,2.151A1.288,1.288,0,0,1,10.975,19.532ZM6.132,1.286a4.631,4.631,0,0,0-3.446,1.5A5.582,5.582,0,0,0,1.286,6.6a6.876,6.876,0,0,0,1.881,4.528,45.685,45.685,0,0,0,5.294,4.958l0,0c.757.645,1.615,1.377,2.509,2.158.9-.783,1.758-1.516,2.517-2.162a45.693,45.693,0,0,0,5.293-4.958A6.877,6.877,0,0,0,20.665,6.6a5.582,5.582,0,0,0-1.4-3.815,4.63,4.63,0,0,0-3.445-1.5,4.264,4.264,0,0,0-2.662.922,6.24,6.24,0,0,0-1.484,1.717.812.812,0,0,1-1.394,0A6.234,6.234,0,0,0,8.794,2.208,4.264,4.264,0,0,0,6.132,1.286Zm0,0" fill="#fff"/>
</svg>
