<svg xmlns="http://www.w3.org/2000/svg" width="20.656" height="20.656" viewBox="0 0 20.656 20.656">
  <path id="iconfinder_75_compare_5355103" d="M20.122.125H9.574a.659.659,0,0,0-.659.659V5.4H.784a.659.659,0,0,0-.659.659V20.122a.659.659,0,0,0,.659.659H11.332a.659.659,0,0,0,.659-.659V15.507h8.131a.659.659,0,0,0,.659-.659V.784A.659.659,0,0,0,20.122.125ZM10.673,19.463H1.443V13.749H5.785L4.273,15.26a.66.66,0,0,0,.934.934l2.637-2.637s0,0,0-.005a.655.655,0,0,0,0-.923s0,0,0-.005L5.207,9.986a.66.66,0,0,0-.934.934l1.512,1.511H1.443V6.717h9.229Zm1.318-5.274V6.058a.659.659,0,0,0-.659-.659h-1.1V1.443h9.229V7.157H15.122l1.512-1.511a.66.66,0,1,0-.934-.934L13.063,7.349s0,0,0,.005a.655.655,0,0,0,0,.923s0,0,0,.005L15.7,10.92a.66.66,0,1,0,.934-.934L15.122,8.475h4.341v5.713Z" transform="translate(-0.125 -0.125)"/>
</svg>
