<svg xmlns="http://www.w3.org/2000/svg" width="8.662" height="10.391" viewBox="0 0 8.662 10.391">
  <g id="Group_8447" data-name="Group 8447" transform="translate(-4377 -16864)">
    <path id="Path_6900" data-name="Path 6900" d="M23.648,2.315a4.336,4.336,0,1,0-6.132,6.132l3.066,2.993,3.057-3h0A4.328,4.328,0,0,0,23.648,2.315Zm-.517,5.606-2.549,2.5L18.033,7.93a3.608,3.608,0,1,1,6.15-2.558A3.529,3.529,0,0,1,23.131,7.921Z" transform="translate(4360.75 16862.949)" fill="#4b5669"/>
    <path id="Path_6901" data-name="Path 6901" d="M44.693,28.3a1.1,1.1,0,1,0,1.093,1.1A1.095,1.095,0,0,0,44.693,28.3Z" transform="translate(4336.638 16838.58)" fill="#4b5669"/>
  </g>
</svg>
