<svg xmlns="http://www.w3.org/2000/svg" width="14.819" height="10.991" viewBox="0 0 14.819 10.991">
  <g id="Group_8450" data-name="Group 8450" transform="translate(-4049.7 -17003.623)">
    <g id="Group_8448" data-name="Group 8448" transform="translate(4052.15 17011.447)">
      <circle id="Ellipse_268" data-name="Ellipse 268" cx="1.433" cy="1.433" r="1.433" transform="translate(0 0)" fill="none" stroke="#fff" stroke-width="0.6"/>
    </g>
    <g id="Group_8449" data-name="Group 8449" transform="translate(4060.032 17011.447)">
      <circle id="Ellipse_269" data-name="Ellipse 269" cx="1.433" cy="1.433" r="1.433" transform="translate(0 0)" fill="none" stroke="#fff" stroke-width="0.6"/>
    </g>
    <path id="Path_6902" data-name="Path 6902" d="M34.443,27.813h.592a.629.629,0,0,0,.592-.592V24.373a2.335,2.335,0,0,0-.419-1.1l-1.222-1.63A1.51,1.51,0,0,0,32.962,21h-2.37a.629.629,0,0,0-.592.592v5.628a.633.633,0,0,0,.592.592h.592m4.443-3.259H32.37a.637.637,0,0,1-.592-.592V22.777a.613.613,0,0,1,.592-.592H34.4" transform="translate(4028.591 16985.02)" fill="none" stroke="#fff" stroke-width="0.6"/>
    <path id="Path_6903" data-name="Path 6903" d="M6.036,22.833H9.044a.548.548,0,0,0,.547-.547V14.538c0-.3-.633-.615-.934-.615H1.547A.548.548,0,0,0,1,14.47v7.77a.629.629,0,0,0,.592.592H3.074" transform="translate(4049 16990)" fill="none" stroke="#fff" stroke-width="0.6"/>
  </g>
</svg>
