<svg xmlns="http://www.w3.org/2000/svg" width="31.3" height="31.3" viewBox="0 0 31.3 31.3">
  <g id="Layer_1" transform="translate(-0.85 -0.85)">
    <path id="Path_6956" data-name="Path 6956" d="M16.5,1A15.491,15.491,0,0,0,6.167,28.04v.011l.225.194c.039.034.083.063.123.1q.418.353.86.676c.079.058.159.114.24.17q.469.329.96.625c.055.033.111.064.166.1.36.209.727.406,1.1.586l.012.005a15.4,15.4,0,0,0,2.528.94l.048.014q.621.17,1.262.286l.119.021c.412.072.829.13,1.252.169l.145.011c.426.036.854.058,1.289.058s.863-.023,1.289-.058l.145-.011c.423-.039.84-.1,1.252-.169l.119-.021q.64-.117,1.262-.286l.048-.014a15.4,15.4,0,0,0,2.528-.94l.012-.005c.377-.18.745-.378,1.1-.586.056-.032.111-.063.166-.1.329-.2.648-.406.96-.625.08-.056.16-.112.24-.17q.442-.324.86-.676c.04-.034.083-.062.123-.1l.225-.194V28.04A15.491,15.491,0,0,0,16.5,1Zm0,15.5a5.167,5.167,0,1,1,5.167-5.167A5.173,5.173,0,0,1,16.5,16.5Zm1.938,1.292a7.113,7.113,0,0,1,7.1,7.1v2.556l-.083.066q-.383.311-.784.593c-.059.042-.118.085-.177.126-.289.2-.585.382-.887.557l-.166.1c-.316.178-.639.344-.967.5l-.1.047a14.216,14.216,0,0,1-3.366,1.05l-.11.02q-.549.094-1.108.145l-.154.012c-.377.029-.755.048-1.135.048s-.759-.019-1.135-.05l-.154-.012Q14.652,30.6,14.1,30.5l-.11-.02a14.217,14.217,0,0,1-3.366-1.05l-.1-.047c-.329-.152-.651-.319-.967-.5l-.166-.1c-.3-.174-.6-.36-.887-.557-.06-.041-.118-.084-.177-.126-.267-.189-.529-.385-.784-.593l-.083-.066V24.9a7.113,7.113,0,0,1,7.1-7.1Zm8.4,8.445V24.9a8.411,8.411,0,0,0-6.7-8.225,6.458,6.458,0,1,0-7.259,0,8.411,8.411,0,0,0-6.7,8.225v1.341a14.208,14.208,0,1,1,20.667,0Z" fill="#5d83be" stroke="#5d83be" stroke-width="0.3"/>
  </g>
</svg>
