<svg xmlns="http://www.w3.org/2000/svg" width="39.582" height="21.624" viewBox="0 0 39.582 21.624">
  <g id="_7019497_shipping_transportation_delivery_truck_online_icon_1_" data-name="7019497_shipping_transportation_delivery_truck_online_icon (1)" transform="translate(-0.45 -8.45)">
    <path id="Path_6987" data-name="Path 6987" d="M27.729,9V26.445H15.338a3.1,3.1,0,0,0-6.2,0H6V9Z" transform="translate(1.414)" fill="none" stroke="#5d769f" stroke-linecap="round" stroke-linejoin="round" stroke-width="1.1"/>
    <path id="Path_6988" data-name="Path 6988" d="M33.279,19.157v6.157H31.214a3.1,3.1,0,0,0-6.2,0H22.94V13h4.323Z" transform="translate(6.203 1.131)" fill="none" stroke="#5d769f" stroke-linecap="round" stroke-linejoin="round" stroke-width="1.1"/>
    <path id="Path_6989" data-name="Path 6989" d="M33.279,17.8v6.157H31.214a3.1,3.1,0,0,0-6.2,0H22.94V17.8Z" transform="translate(6.203 2.488)" fill="none" stroke="#5d769f" stroke-linecap="round" stroke-linejoin="round" stroke-width="1.1"/>
    <ellipse id="Ellipse_274" data-name="Ellipse 274" cx="3.104" cy="3.079" rx="3.104" ry="3.079" transform="translate(10.543 23.366)" fill="none" stroke="#5d769f" stroke-linecap="round" stroke-linejoin="round" stroke-width="1.1"/>
    <ellipse id="Ellipse_275" data-name="Ellipse 275" cx="3.104" cy="3.079" rx="3.104" ry="3.079" transform="translate(31.208 23.366)" fill="none" stroke="#5d769f" stroke-linecap="round" stroke-linejoin="round" stroke-width="1.1"/>
    <line id="Line_114" data-name="Line 114" x2="3.348" transform="translate(1 11.052)" fill="none" stroke="#5d769f" stroke-linecap="round" stroke-linejoin="round" stroke-width="1.1"/>
    <line id="Line_115" data-name="Line 115" x2="3.348" transform="translate(1 15.157)" fill="none" stroke="#5d769f" stroke-linecap="round" stroke-linejoin="round" stroke-width="1.1"/>
    <line id="Line_116" data-name="Line 116" x2="3.348" transform="translate(1 19.262)" fill="none" stroke="#5d769f" stroke-linecap="round" stroke-linejoin="round" stroke-width="1.1"/>
  </g>
</svg>
