<svg xmlns="http://www.w3.org/2000/svg" width="14.593" height="14.593" viewBox="0 0 14.593 14.593">
  <g id="_4213462_communication_global_internet_network_web_icon" data-name="4213462_communication_global_internet_network_web_icon" transform="translate(-1.9 -1.9)">
    <path id="Path_7025" data-name="Path 7025" d="M9.2,16.393A7.2,7.2,0,1,0,2,9.2,7.2,7.2,0,0,0,9.2,16.393ZM3.625,12.063,6.55,12.04a10.417,10.417,0,0,0,1.613,3.331A6.277,6.277,0,0,1,3.625,12.063Zm3.668-4.84h3.645a9.847,9.847,0,0,1,.023,3.865l-3.668.023A9.539,9.539,0,0,1,7.293,7.223ZM9.115,15.1a9.316,9.316,0,0,1-1.59-3.064l3.192-.023A9.807,9.807,0,0,1,9.115,15.1Zm.929.3a10.234,10.234,0,0,0,1.637-3.4l3.122-.023A6.283,6.283,0,0,1,10.044,15.406Zm5.42-6.21a6.473,6.473,0,0,1-.279,1.857l-3.285.023a10.491,10.491,0,0,0-.023-3.853h3.262A6.17,6.17,0,0,1,15.464,9.2Zm-.72-2.9H11.657a10.673,10.673,0,0,0-1.613-3.308A6.241,6.241,0,0,1,14.744,6.295Zm-4.051,0H7.536A9.59,9.59,0,0,1,9.115,3.288,9.59,9.59,0,0,1,10.694,6.295ZM8.163,3.021a10.313,10.313,0,0,0-1.59,3.273H3.648A6.246,6.246,0,0,1,8.163,3.021Zm-1.811,4.2a10.68,10.68,0,0,0-.012,3.888l-3.1.023A6,6,0,0,1,2.929,9.2a6.17,6.17,0,0,1,.325-1.973Z" fill="#292d41" stroke="#ededed" stroke-width="0.2"/>
  </g>
</svg>
