<svg xmlns="http://www.w3.org/2000/svg" width="24.807" height="24.807" viewBox="0 0 24.807 24.807">
  <path id="iconfinder_75_compare_5355103" d="M24.14.125H11.473a.792.792,0,0,0-.792.792V6.459H.917a.792.792,0,0,0-.792.792V24.14a.792.792,0,0,0,.792.792H13.584a.792.792,0,0,0,.792-.792V18.6H24.14a.792.792,0,0,0,.792-.792V.917A.792.792,0,0,0,24.14.125ZM12.792,23.348H1.708V16.487H6.922L5.106,18.3a.793.793,0,0,0,1.122,1.122l3.167-3.167s0,0,0-.007a.787.787,0,0,0,0-1.108s0,0,0-.007L6.228,11.968a.793.793,0,0,0-1.122,1.122L6.922,14.9H1.708V8.042H12.792Zm1.583-6.334V7.25a.792.792,0,0,0-.792-.792h-1.32V1.708H23.348V8.57H18.135l1.816-1.814a.793.793,0,1,0-1.122-1.122L15.662,8.8s0,0,0,.007a.787.787,0,0,0,0,1.108s0,0,0,.007l3.167,3.167a.793.793,0,0,0,1.122-1.122l-1.816-1.814h5.213v6.861Z" transform="translate(-0.125 -0.125)" fill="#7b7b7b"/>
</svg>
