<svg xmlns="http://www.w3.org/2000/svg" width="9.65" height="10.722" viewBox="0 0 9.65 10.722">
  <path id="_2867888_download_icon" data-name="2867888_download_icon" d="M7.289,8.749V2.536a.536.536,0,1,1,1.072,0V8.749L10.13,6.98a.536.536,0,0,1,.751.761L8.2,10.422a.536.536,0,0,1-.751,0l-2.68-2.68A.536.536,0,0,1,5.52,6.98L7.289,8.749ZM3,10.041a.536.536,0,1,1,1.072,0V11.65h7.505V10.041a.536.536,0,0,1,1.072,0V11.65a1.072,1.072,0,0,1-1.072,1.072H4.072A1.072,1.072,0,0,1,3,11.65Z" transform="translate(-3 -2)" fill="#292d41"/>
</svg>
