<svg xmlns="http://www.w3.org/2000/svg" width="14" height="14" viewBox="0 0 14 14">
  <g id="Group_8713" data-name="Group 8713" transform="translate(-768 -2195)">
    <g id="information_3_" data-name="information (3)" transform="translate(768 2195)">
      <g id="Group_2254" data-name="Group 2254" transform="translate(0 0)">
        <g id="Group_2253" data-name="Group 2253">
          <path id="Path_3013" data-name="Path 3013" d="M11.95,2.05a7,7,0,0,0-9.9,9.9,7,7,0,0,0,8.572,1.041.547.547,0,0,0-.567-.936A5.959,5.959,0,1,1,11.9,10.278a.547.547,0,0,0,.909.608A6.983,6.983,0,0,0,11.95,2.05Z" transform="translate(0 0)"/>
        </g>
      </g>
    </g>
    <path id="Path_3014" data-name="Path 3014" d="M1.936-15.5a2.743,2.743,0,0,1,.735-.26,3.77,3.77,0,0,1,.745-.078,3.1,3.1,0,0,1,1.1.178,1.682,1.682,0,0,1,.735.5,1.158,1.158,0,0,1,.263.75,1.337,1.337,0,0,1-.169.676,2.254,2.254,0,0,1-.432.538q-.263.243-.531.477a3.656,3.656,0,0,0-.467.486,1.13,1.13,0,0,0-.238.572l-.05.243H2.9v-.356a1.663,1.663,0,0,1,.134-.694,2.089,2.089,0,0,1,.333-.52q.2-.225.4-.429a2.421,2.421,0,0,0,.338-.416.883.883,0,0,0,.134-.481A.536.536,0,0,0,4-14.782a1.179,1.179,0,0,0-.675-.165,2.869,2.869,0,0,0-.675.087,3.042,3.042,0,0,0-.715.278ZM2.572-9.6V-10.81h1.4V-9.6Z" transform="translate(771.276 2214.522)"/>
  </g>
</svg>
