<svg xmlns="http://www.w3.org/2000/svg" width="11.909" height="22.705" viewBox="0 0 11.909 22.705">
  <g id="Group_10342" data-name="Group 10342" transform="translate(-328.09 -222.147)">
    <g id="direction-switcher-DESC" transform="translate(332.826 227.549)">
      <g id="long-arrow_pointing-down" data-name="long-arrow/pointing-down" transform="matrix(-1, -0.017, 0.017, -1, 6.873, 17.304)">
        <g id="long-arrow-pointing-up" transform="translate(0 0)">
          <path id="Path" d="M6.8,3.471,3.626.088A.3.3,0,0,0,3.411,0,.285.285,0,0,0,3.2.088L.072,3.471a.28.28,0,0,0-.045.308.26.26,0,0,0,.26.167h2L2.463,16.9a.272.272,0,0,0,.081.2.282.282,0,0,0,.206.079H4.468a.281.281,0,0,0,.206-.079.272.272,0,0,0,.081-.2L4.583,3.947h2a.27.27,0,0,0,.259-.167A.28.28,0,0,0,6.8,3.471Z"/>
        </g>
      </g>
    </g>
    <g id="direction-switcher-DESC-2" data-name="direction-switcher-DESC" transform="translate(328.09 222.147)">
      <g id="long-arrow_pointing-down-2" data-name="long-arrow/pointing-down" transform="matrix(-1, 0.017, -0.017, -1, 7.174, 17.184)">
        <g id="long-arrow-pointing-up-2" data-name="long-arrow-pointing-up" transform="translate(0 0)">
          <path id="Path-2" data-name="Path" d="M6.8,13.715,3.626,17.1a.3.3,0,0,1-.215.088A.285.285,0,0,1,3.2,17.1L.072,13.715a.28.28,0,0,1-.045-.308.26.26,0,0,1,.26-.167H2.292L2.463.282a.272.272,0,0,1,.081-.2A.282.282,0,0,1,2.75,0H4.468a.281.281,0,0,1,.206.079.272.272,0,0,1,.081.2L4.583,13.239H6.588a.27.27,0,0,1,.259.167A.28.28,0,0,1,6.8,13.715Z"/>
        </g>
      </g>
    </g>
  </g>
</svg>
