<svg xmlns="http://www.w3.org/2000/svg" width="18.491" height="18.491" viewBox="0 0 18.491 18.491">
  <g id="Group_8597" data-name="Group 8597" transform="translate(-1629 -5436.509)">
    <circle id="Ellipse_293" data-name="Ellipse 293" cx="2.331" cy="2.331" r="2.331" transform="translate(1635.915 5443.424)" fill="#c6c6c6"/>
    <path id="Path_7024" data-name="Path 7024" d="M16.1,3h-7.7A5.4,5.4,0,0,0,3,8.394v7.7a5.4,5.4,0,0,0,5.394,5.392h7.7A5.4,5.4,0,0,0,21.491,16.1v-7.7A5.4,5.4,0,0,0,16.1,3ZM12.246,16.868a4.623,4.623,0,1,1,4.623-4.623A4.627,4.627,0,0,1,12.246,16.868Zm5.393-9.246a.77.77,0,1,1,.77-.77A.771.771,0,0,1,17.639,7.623Z" transform="translate(1626 5433.509)" fill="#c6c6c6"/>
  </g>
</svg>
