<svg xmlns="http://www.w3.org/2000/svg" width="20.184" height="16.399" viewBox="0 0 20.184 16.399">
  <path id="twitter_14_" data-name="twitter (14)" d="M20.184,49.941a8.627,8.627,0,0,1-2.384.653,4.115,4.115,0,0,0,1.82-2.287,8.269,8.269,0,0,1-2.624,1,4.138,4.138,0,0,0-7.158,2.829,4.261,4.261,0,0,0,.1.944,11.712,11.712,0,0,1-8.529-4.328,4.139,4.139,0,0,0,1.272,5.53,4.086,4.086,0,0,1-1.87-.51v.045a4.157,4.157,0,0,0,3.315,4.066,4.13,4.13,0,0,1-1.085.136,3.659,3.659,0,0,1-.783-.071,4.177,4.177,0,0,0,3.866,2.882A8.314,8.314,0,0,1,.99,62.6,7.75,7.75,0,0,1,0,62.542,11.649,11.649,0,0,0,6.348,64.4,11.7,11.7,0,0,0,18.125,52.625c0-.183-.006-.36-.015-.535A8.255,8.255,0,0,0,20.184,49.941Z" transform="translate(0 -48)" fill="#c6c6c6"/>
</svg>
