<svg xmlns="http://www.w3.org/2000/svg" width="27.143" height="19.005" viewBox="0 0 27.143 19.005">
  <path id="youtube_4_" data-name="youtube (4)" d="M26.584-3.108A3.4,3.4,0,0,0,24.192-5.5c-2.124-.581-10.62-.581-10.62-.581s-8.5,0-10.62.559A3.469,3.469,0,0,0,.559-3.108,35.831,35.831,0,0,0,0,3.42,35.7,35.7,0,0,0,.559,9.949a3.4,3.4,0,0,0,2.392,2.392c2.146.581,10.62.581,10.62.581s8.5,0,10.62-.559a3.4,3.4,0,0,0,2.393-2.392,35.843,35.843,0,0,0,.559-6.529A34.013,34.013,0,0,0,26.584-3.108ZM10.866,7.49V-.649L17.931,3.42Zm0,0" transform="translate(0 6.082)" fill="#c6c6c6"/>
</svg>
