<svg xmlns="http://www.w3.org/2000/svg" width="20.225" height="21.021" viewBox="0 0 20.225 21.021">
  <g id="cart_2_" data-name="cart (2)" transform="translate(-9.698 0)">
    <g id="Group_2085" data-name="Group 2085" transform="translate(9.698 0)">
      <g id="Group_2084" data-name="Group 2084" transform="translate(0 0)">
        <path id="Path_2977" data-name="Path 2977" d="M132.178,382.711a2.234,2.234,0,1,0,2.234,2.234A2.237,2.237,0,0,0,132.178,382.711Zm0,3.128a.894.894,0,1,1,.894-.894A.895.895,0,0,1,132.178,385.839Z" transform="translate(-124.729 -366.159)" fill="#7b7b7b"/>
        <path id="Path_2978" data-name="Path 2978" d="M323.529,382.711a2.234,2.234,0,1,0,2.234,2.234A2.237,2.237,0,0,0,323.529,382.711Zm0,3.128a.894.894,0,1,1,.894-.894A.895.895,0,0,1,323.529,385.839Z" transform="translate(-307.326 -366.159)" fill="#7b7b7b"/>
        <path id="Path_2979" data-name="Path 2979" d="M29.75,5.551a.778.778,0,0,0-.623-.322H15.185l-.724-3.917a.825.825,0,0,0-.638-.673L10.638.014A.8.8,0,0,0,9.711.7a.85.85,0,0,0,.64.992L13,2.212,15.34,14.86a.812.812,0,0,0,.781.687H27.269a.81.81,0,0,0,.776-.661L29.9,6.274A.9.9,0,0,0,29.75,5.551Zm-3.114,8.29h-9.86L15.5,6.935H28.125Z" transform="translate(-9.698 0)" fill="#7b7b7b"/>
      </g>
    </g>
  </g>
</svg>
