<svg id="facebook-logo_1_" data-name="facebook-logo (1)" xmlns="http://www.w3.org/2000/svg" width="12.078" height="22.34" viewBox="0 0 12.078 22.34">
  <path id="Path_2996" data-name="Path 2996" d="M33.7,0,30.8,0c-3.255,0-5.358,2.158-5.358,5.5V8.033H22.533a.456.456,0,0,0-.456.456v3.673a.456.456,0,0,0,.456.456h2.913v9.268a.455.455,0,0,0,.456.456h3.8a.456.456,0,0,0,.456-.456V12.617h3.406a.455.455,0,0,0,.456-.456V8.489a.456.456,0,0,0-.456-.456H30.157V5.884c0-1.033.246-1.557,1.592-1.557H33.7a.455.455,0,0,0,.455-.456V.46A.456.456,0,0,0,33.7,0Z" transform="translate(-22.077)" fill="#c6c6c6"/>
</svg>
