<svg xmlns="http://www.w3.org/2000/svg" width="15.506" height="15.506" viewBox="0 0 15.506 15.506">
  <g id="headset_3_" data-name="headset (3)" transform="translate(0.15 0.15)">
    <g id="Group_2087" data-name="Group 2087">
      <g id="Group_2086" data-name="Group 2086">
        <path id="Path_2982" data-name="Path 2982" d="M3.564,6.029H2.39A5.228,5.228,0,0,1,12.507,4.6a.594.594,0,0,0,1.114-.412A6.416,6.416,0,0,0,1.189,6.348,2.377,2.377,0,0,0,0,8.405v2.02A2.379,2.379,0,0,0,2.376,12.8H3.564a.594.594,0,0,0,.594-.594V6.623A.594.594,0,0,0,3.564,6.029ZM2.97,11.613H2.376a1.189,1.189,0,0,1-1.188-1.188V8.405A1.189,1.189,0,0,1,2.376,7.217H2.97Z" fill="#292d41" stroke="#ededed" stroke-width="0.3"/>
        <path id="Path_2983" data-name="Path 2983" d="M222.415,203h-1.188a.594.594,0,0,0-.594.594V209.8a.6.6,0,0,1-.594.594h-1.812v.019a1.188,1.188,0,1,0,0,1.15v.019h1.812a1.784,1.784,0,0,0,1.782-1.782v-.03h.594a2.379,2.379,0,0,0,2.376-2.376v-2.02A2.379,2.379,0,0,0,222.415,203Zm1.188,4.4a1.189,1.189,0,0,1-1.188,1.188h-.594v-4.4h.594a1.189,1.189,0,0,1,1.188,1.188Z" transform="translate(-209.585 -196.971)" fill="#292d41" stroke="#ededed" stroke-width="0.3"/>
      </g>
    </g>
  </g>
</svg>
