<svg id="linkedin_6_" data-name="linkedin (6)" xmlns="http://www.w3.org/2000/svg" width="18.663" height="18.663" viewBox="0 0 18.663 18.663">
  <path id="Path_2997" data-name="Path 2997" d="M20.546,20.347h0V13.5c0-3.348-.721-5.928-4.635-5.928a4.064,4.064,0,0,0-3.66,2.012H12.2v-1.7H8.489v12.46h3.865v-6.17c0-1.624.308-3.2,2.32-3.2,1.982,0,2.012,1.854,2.012,3.3v6.066Z" transform="translate(-1.888 -1.684)" fill="#c6c6c6"/>
  <path id="Path_2998" data-name="Path 2998" d="M.4,7.977H4.265v12.46H.4Z" transform="translate(-0.088 -1.774)" fill="#c6c6c6"/>
  <path id="Path_2999" data-name="Path 2999" d="M2.241,0A2.252,2.252,0,1,0,4.482,2.241,2.242,2.242,0,0,0,2.241,0Z" fill="#c6c6c6"/>
</svg>
