<svg xmlns="http://www.w3.org/2000/svg" width="12" height="14.393" viewBox="0 0 12 14.393">
  <g id="Group_8447" data-name="Group 8447" transform="translate(-4377 -16864)">
    <path id="Path_6900" data-name="Path 6900" d="M26.5,2.8A6.007,6.007,0,1,0,18,11.3l4.248,4.147,4.235-4.159h0A5.994,5.994,0,0,0,26.5,2.8Zm-.716,7.765-3.531,3.468-3.531-3.455a5,5,0,1,1,8.52-3.543A4.888,4.888,0,0,1,25.782,10.568Z" transform="translate(4360.75 16862.949)" fill="#292d41"/>
    <path id="Path_6901" data-name="Path 6901" d="M45.319,28.3a1.724,1.724,0,1,0,1.719,1.728A1.721,1.721,0,0,0,45.319,28.3Z" transform="translate(4337.681 16839.545)" fill="#292d41"/>
  </g>
</svg>
