<svg xmlns="http://www.w3.org/2000/svg" width="18.018" height="21.021" viewBox="0 0 18.018 21.021">
  <g id="user_16_" data-name="user (16)" transform="translate(0 -0.008)">
    <path id="Path_2975" data-name="Path 2975" d="M90.337,10.018a5.005,5.005,0,1,1,5.005-5A5.011,5.011,0,0,1,90.337,10.018Zm0-8.509a3.5,3.5,0,1,0,3.5,3.5A3.507,3.507,0,0,0,90.337,1.509Zm0,0" transform="translate(-81.328)" fill="#7b7b7b"/>
    <path id="Path_2976" data-name="Path 2976" d="M17.267,265.017H.751A.751.751,0,0,1,0,264.266v-3.5a4.76,4.76,0,0,1,4.755-4.755h8.509a4.76,4.76,0,0,1,4.755,4.755v3.5A.751.751,0,0,1,17.267,265.017ZM1.5,263.515H16.517v-2.753a3.257,3.257,0,0,0-3.253-3.253H4.755A3.257,3.257,0,0,0,1.5,260.763Zm0,0" transform="translate(0 -243.988)" fill="#7b7b7b"/>
  </g>
</svg>
